<svg xmlns="http://www.w3.org/2000/svg" xmlns:xlink="http://www.w3.org/1999/xlink" viewBox="0 0 1182.12 271.18"><defs><style>.cls-1{isolation:isolate;}.cls-2{fill:url(#Dégradé_sans_nom_44);}.cls-3{fill:url(#Dégradé_sans_nom_44-2);}.cls-4{fill:url(#Dégradé_sans_nom_44-3);}.cls-5{fill:url(#Dégradé_sans_nom_44-4);}.cls-6{fill:url(#Dégradé_sans_nom_44-5);}.cls-7{fill:url(#Dégradé_sans_nom_44-6);}.cls-8{fill:url(#Dégradé_sans_nom_44-7);}.cls-9{fill:url(#Dégradé_sans_nom_44-8);}.cls-10{fill:url(#Dégradé_sans_nom_44-9);}.cls-11{fill:url(#Dégradé_sans_nom_44-10);}.cls-12{fill:url(#Dégradé_sans_nom_44-11);}.cls-13{fill:url(#Dégradé_sans_nom_44-12);}.cls-14{fill:url(#Dégradé_sans_nom_44-13);}.cls-15{fill:url(#Dégradé_sans_nom_44-14);}.cls-16{fill:url(#Dégradé_sans_nom_44-15);}.cls-17{fill:url(#Dégradé_sans_nom_44-16);}.cls-18{fill:url(#Dégradé_sans_nom_44-17);}.cls-19{fill:url(#Dégradé_sans_nom_44-18);}.cls-20{fill:url(#Dégradé_sans_nom_44-19);}.cls-21{fill:url(#Dégradé_sans_nom_44-20);}.cls-22{fill:url(#Dégradé_sans_nom_44-21);}.cls-23{fill:url(#Dégradé_sans_nom_44-22);}.cls-24{fill:url(#Dégradé_sans_nom_44-23);}.cls-25{fill:url(#Dégradé_sans_nom_44-24);}.cls-26{fill:url(#Dégradé_sans_nom_44-25);}.cls-27{fill:url(#Dégradé_sans_nom_44-26);}.cls-28{fill:url(#Dégradé_sans_nom_44-27);}.cls-29{fill:url(#Dégradé_sans_nom_44-28);}.cls-30{fill:url(#Dégradé_sans_nom_44-29);}.cls-31{fill:url(#Dégradé_sans_nom_44-30);}.cls-32,.cls-33{opacity:0.2;}.cls-32,.cls-33,.cls-34{mix-blend-mode:multiply;}.cls-32{fill:url(#linear-gradient);}.cls-33{fill:url(#linear-gradient-2);}.cls-34{opacity:0.4;fill:url(#Dégradé_sans_nom_3);}</style><linearGradient id="Dégradé_sans_nom_44" x1="432.79" y1="119.35" x2="298.12" y2="119.35" gradientUnits="userSpaceOnUse"><stop offset="0" stop-color="#f2f1f9"/><stop offset="1" stop-color="#ece0f0"/></linearGradient><linearGradient id="Dégradé_sans_nom_44-2" x1="591.42" y1="144.24" x2="455.48" y2="144.24" xlink:href="#Dégradé_sans_nom_44"/><linearGradient id="Dégradé_sans_nom_44-3" x1="749.65" y1="142.95" x2="613.71" y2="142.95" xlink:href="#Dégradé_sans_nom_44"/><linearGradient id="Dégradé_sans_nom_44-4" x1="970.04" y1="144.57" x2="772.56" y2="144.57" xlink:href="#Dégradé_sans_nom_44"/><linearGradient id="Dégradé_sans_nom_44-5" x1="1117.56" y1="172.87" x2="983.88" y2="172.87" xlink:href="#Dégradé_sans_nom_44"/><linearGradient id="Dégradé_sans_nom_44-6" x1="1086.62" y1="202.35" x2="1099.72" y2="202.35" xlink:href="#Dégradé_sans_nom_44"/><linearGradient id="Dégradé_sans_nom_44-7" x1="1105.43" y1="183.33" x2="1134.28" y2="183.33" xlink:href="#Dégradé_sans_nom_44"/><linearGradient id="Dégradé_sans_nom_44-8" x1="1144.89" y1="189.35" x2="1182.12" y2="189.35" xlink:href="#Dégradé_sans_nom_44"/><linearGradient id="Dégradé_sans_nom_44-9" x1="380.14" y1="248.85" x2="391.85" y2="248.85" xlink:href="#Dégradé_sans_nom_44"/><linearGradient id="Dégradé_sans_nom_44-10" x1="405.92" y1="248.85" x2="407.91" y2="248.85" xlink:href="#Dégradé_sans_nom_44"/><linearGradient id="Dégradé_sans_nom_44-11" x1="421.57" y1="248.85" x2="432.77" y2="248.85" xlink:href="#Dégradé_sans_nom_44"/><linearGradient id="Dégradé_sans_nom_44-12" x1="446.41" y1="248.85" x2="457.07" y2="248.85" xlink:href="#Dégradé_sans_nom_44"/><linearGradient id="Dégradé_sans_nom_44-13" x1="486.4" y1="248.85" x2="499.13" y2="248.85" xlink:href="#Dégradé_sans_nom_44"/><linearGradient id="Dégradé_sans_nom_44-14" x1="511.79" y1="242.52" x2="514.39" y2="242.52" xlink:href="#Dégradé_sans_nom_44"/><linearGradient id="Dégradé_sans_nom_44-15" x1="527.93" y1="248.85" x2="538.59" y2="248.85" xlink:href="#Dégradé_sans_nom_44"/><linearGradient id="Dégradé_sans_nom_44-16" x1="552.39" y1="248.85" x2="564.65" y2="248.85" xlink:href="#Dégradé_sans_nom_44"/><linearGradient id="Dégradé_sans_nom_44-17" x1="578.94" y1="248.85" x2="591.85" y2="248.85" xlink:href="#Dégradé_sans_nom_44"/><linearGradient id="Dégradé_sans_nom_44-18" x1="605.81" y1="248.85" x2="618.07" y2="248.85" xlink:href="#Dégradé_sans_nom_44"/><linearGradient id="Dégradé_sans_nom_44-19" x1="633.07" y1="246.7" x2="643.73" y2="246.7" xlink:href="#Dégradé_sans_nom_44"/><linearGradient id="Dégradé_sans_nom_44-20" x1="657.69" y1="248.85" x2="669.89" y2="248.85" xlink:href="#Dégradé_sans_nom_44"/><linearGradient id="Dégradé_sans_nom_44-21" x1="683.55" y1="248.85" x2="694.21" y2="248.85" xlink:href="#Dégradé_sans_nom_44"/><linearGradient id="Dégradé_sans_nom_44-22" x1="707.12" y1="248.85" x2="718.83" y2="248.85" xlink:href="#Dégradé_sans_nom_44"/><linearGradient id="Dégradé_sans_nom_44-23" x1="748.28" y1="248.85" x2="758.94" y2="248.85" xlink:href="#Dégradé_sans_nom_44"/><linearGradient id="Dégradé_sans_nom_44-24" x1="772.74" y1="248.85" x2="785" y2="248.85" xlink:href="#Dégradé_sans_nom_44"/><linearGradient id="Dégradé_sans_nom_44-25" x1="815.24" y1="248.85" x2="824.79" y2="248.85" xlink:href="#Dégradé_sans_nom_44"/><linearGradient id="Dégradé_sans_nom_44-26" x1="838.46" y1="248.85" x2="840.45" y2="248.85" xlink:href="#Dégradé_sans_nom_44"/><linearGradient id="Dégradé_sans_nom_44-27" x1="854.87" y1="248.85" x2="868" y2="248.85" xlink:href="#Dégradé_sans_nom_44"/><linearGradient id="Dégradé_sans_nom_44-28" x1="882.67" y1="248.85" x2="894.92" y2="248.85" xlink:href="#Dégradé_sans_nom_44"/><linearGradient id="Dégradé_sans_nom_44-29" x1="909.79" y1="248.85" x2="920.45" y2="248.85" xlink:href="#Dégradé_sans_nom_44"/><linearGradient id="Dégradé_sans_nom_44-30" x1="0" y1="133.34" x2="240.29" y2="133.34" xlink:href="#Dégradé_sans_nom_44"/><linearGradient id="linear-gradient" x1="60.43" y1="557.38" x2="38.99" y2="561.16" gradientTransform="translate(96.86 -419.74) rotate(-4.33)" gradientUnits="userSpaceOnUse"><stop offset="0" stop-color="#170006" stop-opacity="0.96"/><stop offset="0.2" stop-color="#968c8e" stop-opacity="0.43"/><stop offset="0.47" stop-color="#e7e5e5" stop-opacity="0.1"/><stop offset="1" stop-color="#fff" stop-opacity="0"/></linearGradient><linearGradient id="linear-gradient-2" x1="-3823.48" y1="-572.88" x2="-3844.92" y2="-569.1" gradientTransform="matrix(-0.89, -0.46, -0.46, 0.89, -3572.34, -1145.69)" xlink:href="#linear-gradient"/><linearGradient id="Dégradé_sans_nom_3" x1="-1787.7" y1="-1461.67" x2="-1901.81" y2="-1475.2" gradientTransform="translate(1437.6 1637.56) scale(0.68 0.95)" gradientUnits="userSpaceOnUse"><stop offset="0" stop-color="#170006" stop-opacity="0.96"/><stop offset="0.48" stop-color="#331f24" stop-opacity="0.84"/><stop offset="0.8" stop-color="#8e8386" stop-opacity="0.47"/><stop offset="1" stop-color="#fff" stop-opacity="0"/></linearGradient></defs><g class="cls-1"><g id="Layer_2" data-name="Layer 2"><g id="Calque_1" data-name="Calque 1"><path class="cls-2" d="M418.71,119.84a54.45,54.45,0,0,0-14.46-8.53A123.42,123.42,0,0,0,387.56,106q-8.65-2.1-16.68-3.83a81,81,0,0,1-14.46-4.45,28,28,0,0,1-10.25-7q-3.84-4.34-3.84-11.5a19.12,19.12,0,0,1,3-10.87,19.52,19.52,0,0,1,8.4-6.92,30.83,30.83,0,0,1,12.86-2.47A33.41,33.41,0,0,1,381.14,62a24.4,24.4,0,0,1,10,8.53,23.24,23.24,0,0,1,3.53,11.58,2.14,2.14,0,0,0,2.14,2h31.06a2.15,2.15,0,0,0,2.16-2.2q-.5-15.63-8.12-26.85-8.16-12-23-18.41t-35.09-6.42q-18.79,0-32.75,6.3a49.57,49.57,0,0,0-21.63,17.92Q301.8,66.08,301.8,82.4q0,12.6,3.83,21a39.56,39.56,0,0,0,10.13,13.84A52.85,52.85,0,0,0,330.1,126a123.58,123.58,0,0,0,16.68,5.56q8.66,2.22,16.69,4.2a84,84,0,0,1,14.33,4.82,29.69,29.69,0,0,1,10.14,7.17c2.55,2.88,3.83,6.72,3.83,11.49a17.63,17.63,0,0,1-11.87,17.55A35.82,35.82,0,0,1,366.8,179a38,38,0,0,1-16.43-3.33,24.82,24.82,0,0,1-10.88-9.64,27,27,0,0,1-3.77-12.7,2.15,2.15,0,0,0-2.15-2H300.28a2.16,2.16,0,0,0-2.16,2.19q.48,15.94,7.76,28,7.78,12.86,23.11,19.89t37.81,7q20.26,0,35.1-6.18t22.86-18.17q8-12,8-29.53,0-12.62-3.83-21A37.88,37.88,0,0,0,418.71,119.84Z"/><path class="cls-3" d="M559.54,87q-15.33-8.28-36.09-8.28t-36,8.28a59.28,59.28,0,0,0-23.61,23q-8.4,14.71-8.4,34.23,0,19.29,8.4,34.11a59,59,0,0,0,23.61,23.11q15.19,8.28,36,8.28t36.09-8.28a58,58,0,0,0,23.6-23.11q8.28-14.82,8.28-34.11,0-19.52-8.28-34.23A58.25,58.25,0,0,0,559.54,87Zm-11.25,75.75a25.8,25.8,0,0,1-9.64,11.74,30.35,30.35,0,0,1-30.4,0,25.86,25.86,0,0,1-9.64-11.74q-3.33-7.65-3.34-18.54t3.34-18.53a25.49,25.49,0,0,1,24.84-16.07A28.56,28.56,0,0,1,535.31,112a24.73,24.73,0,0,1,8.9,6.8,29.42,29.42,0,0,1,5.56,10.87,52.53,52.53,0,0,1,1.86,14.58Q551.63,155.13,548.29,162.78Z"/><path class="cls-4" d="M717.76,85.73q-15.33-8.28-36.08-8.28t-36,8.28a59.24,59.24,0,0,0-23.61,23q-8.4,14.7-8.4,34.23,0,19.28,8.4,34.11a59,59,0,0,0,23.61,23.11q15.19,8.28,36,8.28t36.08-8.28a58.08,58.08,0,0,0,23.61-23.11q8.28-14.84,8.28-34.11,0-19.51-8.28-34.23A58.3,58.3,0,0,0,717.76,85.73Zm-11.24,75.76a25.91,25.91,0,0,1-9.64,11.74,30.42,30.42,0,0,1-30.4,0,25.85,25.85,0,0,1-9.64-11.74q-3.35-7.67-3.34-18.54t3.34-18.54a25.5,25.5,0,0,1,24.84-16.06,28.4,28.4,0,0,1,11.86,2.35,24.7,24.7,0,0,1,8.9,6.79A29.62,29.62,0,0,1,708,128.37,52.44,52.44,0,0,1,709.85,143Q709.85,153.82,706.52,161.49Z"/><path class="cls-5" d="M957.8,92.79A35.74,35.74,0,0,0,944,83.65a49.92,49.92,0,0,0-17.43-3A48.89,48.89,0,0,0,904.17,86a46.6,46.6,0,0,0-17.68,16c-.4.6-.78,1.23-1.16,1.86a39.17,39.17,0,0,0-7.49-11.5,35,35,0,0,0-13.47-8.78,49.84,49.84,0,0,0-17.17-2.84A40,40,0,0,0,824,87.85a44.18,44.18,0,0,0-11.85,12.33,2.15,2.15,0,0,1-4-1.16V85.31A2.16,2.16,0,0,0,806,83.15H774.71a2.16,2.16,0,0,0-2.15,2.16v121a2.15,2.15,0,0,0,2.15,2.15h34.74a2.16,2.16,0,0,0,2.16-2.15V148.16q0-13.35,3.08-20.89t8-10.75a19.13,19.13,0,0,1,10.63-3.21,22.75,22.75,0,0,1,7.66,1.23,13.72,13.72,0,0,1,5.93,4.2,20.92,20.92,0,0,1,3.83,8,51.57,51.57,0,0,1,1.36,13v66.56a2.15,2.15,0,0,0,2.16,2.15h33.75a2.15,2.15,0,0,0,2.15-2.15V148.16q0-13.35,3.09-20.89t8-10.75a18.74,18.74,0,0,1,10.38-3.21,23.48,23.48,0,0,1,7.9,1.23,14.53,14.53,0,0,1,6.06,4.2,19.92,19.92,0,0,1,4,8,51.62,51.62,0,0,1,1.35,13v66.56a2.16,2.16,0,0,0,2.16,2.15h34.74a2.16,2.16,0,0,0,2.16-2.15V130.36q0-12.86-3.22-22.12A42.54,42.54,0,0,0,957.8,92.79Z"/><path class="cls-6" d="M1079.27,84.6l-26.17,75.73a2.16,2.16,0,0,1-4.1-.05l-23.87-75.62a2.15,2.15,0,0,0-2.05-1.51H986a2.16,2.16,0,0,0-2,2.94l46.71,120.3a2.21,2.21,0,0,1,0,1.58L1010,259.63a2.15,2.15,0,0,0,2,3h33.41a2.17,2.17,0,0,0,2-1.35l70-175.13a2.16,2.16,0,0,0-2-3h-34.09A2.17,2.17,0,0,0,1079.27,84.6Z"/><path class="cls-7" d="M1096.65,196.84a7.15,7.15,0,0,0-3.48-.8,7.06,7.06,0,0,0-3.47.8,5.68,5.68,0,0,0-2.27,2.21,7.11,7.11,0,0,0,0,6.59,5.6,5.6,0,0,0,2.27,2.23,7.17,7.17,0,0,0,3.47.8,7.27,7.27,0,0,0,3.48-.8,5.63,5.63,0,0,0,2.28-2.23,7.27,7.27,0,0,0,0-6.59A5.71,5.71,0,0,0,1096.65,196.84Z"/><path class="cls-8" d="M1122.19,157H1113a1.11,1.11,0,0,0-1.11,1.11v11.54a1.1,1.1,0,0,1-1.1,1.1h-4.3a1.11,1.11,0,0,0-1.1,1.11v6.23a1.11,1.11,0,0,0,1.1,1.11h4.3a1.1,1.1,0,0,1,1.1,1.11v14.74a29.32,29.32,0,0,0,.71,7,9.55,9.55,0,0,0,2.32,4.48,9.25,9.25,0,0,0,4.22,2.39,23.69,23.69,0,0,0,6.43.75c1.05,0,2.14,0,3.29-.15s2.19-.24,3.14-.41a11,11,0,0,0,1.42-.34,1.1,1.1,0,0,0,.75-1.05v-6.77a1.1,1.1,0,0,0-1.5-1,7.9,7.9,0,0,1-1.08.32,13.28,13.28,0,0,1-2.81.3,9.14,9.14,0,0,1-3.25-.48,3,3,0,0,1-1.75-1.8,10.25,10.25,0,0,1-.53-3.7V180.33a1.11,1.11,0,0,1,1.11-1.11h8.77a1.11,1.11,0,0,0,1.11-1.11v-6.23a1.11,1.11,0,0,0-1.11-1.11h-8.77a1.11,1.11,0,0,1-1.11-1.1V158.13A1.1,1.1,0,0,0,1122.19,157Z"/><path class="cls-9" d="M1181.11,178.36a13,13,0,0,0-2.8-4.67,11,11,0,0,0-4.34-2.77,16.67,16.67,0,0,0-5.61-.9,13.67,13.67,0,0,0-7.69,2.17,13,13,0,0,0-3.06,2.81,1.1,1.1,0,0,1-1.95-.7v-1.75a1.78,1.78,0,0,0-1.78-1.78H1146a1.11,1.11,0,0,0-1.11,1.11v35.68a1.11,1.11,0,0,0,1.11,1.11h9.6a1.11,1.11,0,0,0,1.1-1.11V190.43a17.24,17.24,0,0,1,.94-6.32,6.55,6.55,0,0,1,2.54-3.25,6.78,6.78,0,0,1,3.55-1,9.27,9.27,0,0,1,2.77.38,4.77,4.77,0,0,1,2,1.27,5.75,5.75,0,0,1,1.31,2.43,14.22,14.22,0,0,1,.45,3.92v19.67a1.11,1.11,0,0,0,1.1,1.11h9.6a1.11,1.11,0,0,0,1.11-1.11V185.05A19.87,19.87,0,0,0,1181.11,178.36Z"/><path class="cls-10" d="M391.47,243.23l-.85,1.54a10.45,10.45,0,0,0-4.86-1.32c-1.66,0-2.88.69-2.88,2.09a1.37,1.37,0,0,0,.63,1.16,10.39,10.39,0,0,0,2.64.93,21.69,21.69,0,0,1,3.82,1.24,3.16,3.16,0,0,1,1.86,2.5,4.87,4.87,0,0,1,0,.55,3.44,3.44,0,0,1-1.52,3,6.84,6.84,0,0,1-3.92,1,11.66,11.66,0,0,1-6.27-1.75l.91-1.5a11,11,0,0,0,5.55,1.54c1.82,0,3.16-.71,3.16-2.07a1.6,1.6,0,0,0-.83-1.6,3.28,3.28,0,0,0-1.1-.45,13.69,13.69,0,0,0-1.58-.43l-.65-.18a12.46,12.46,0,0,1-3.65-1.36,2.59,2.59,0,0,1-1.22-2.37c0-2.77,2.37-4,5.24-4A10.67,10.67,0,0,1,391.47,243.23Z"/><path class="cls-11" d="M407.91,255.74h-2V242h2Z"/><path class="cls-12" d="M432.77,243.66h-4.6v12.08h-2V243.66h-4.59V242h11.2Z"/><path class="cls-13" d="M456.89,243.74H448.4v4.18h7.84v1.7H448.4V254h8.67v1.79H446.41V242h10.48Z"/><path class="cls-14" d="M486.4,242h5.44a6.91,6.91,0,1,1,0,13.79H486.4Zm2,1.79V254h3.37a5.35,5.35,0,0,0,3.78-1.46,5,5,0,0,0,0-7.27,5.32,5.32,0,0,0-3.78-1.48Z"/><path class="cls-15" d="M514.23,241.81l-1.85,2.82-.59-.28,1.06-2.2a.89.89,0,0,1-.59-.83c-.1-1.22,2.23-1.22,2.13,0A.89.89,0,0,1,514.23,241.81Z"/><path class="cls-16" d="M538.41,243.74h-8.49v4.18h7.84v1.7h-7.84V254h8.67v1.79H527.93V242h10.48Z"/><path class="cls-17" d="M564.65,255.74h-2.13l-8.18-10.62v10.62h-2V242h2.13l8.18,10.62V242h1.95Z"/><path class="cls-18" d="M591.85,244.47l-1.69,1a4.91,4.91,0,0,0-4-1.85,5,5,0,0,0-3.68,1.53,5.22,5.22,0,0,0,3.68,8.91,4.91,4.91,0,0,0,4-1.85l1.69,1a7.1,7.1,0,1,1,0-8.75Z"/><path class="cls-19" d="M618.07,255.74h-2v-6.05H607.8v6.05h-2V242h2v6h8.28v-6h2Z"/><path class="cls-20" d="M643.55,243.74h-8.49v4.18h7.84v1.7h-7.84V254h8.67v1.79H633.07V242h10.48Zm-4.1-3h-1.63l-2.58-3.14h2Z"/><path class="cls-21" d="M657.69,242h5.95c4.1,0,5.77,1.32,5.77,4.41,0,2.31-.94,3.61-3.15,4.1l3.63,5.28H667.6l-3.41-5c-.29,0-.63,0-1,0h-3.51v5h-2Zm2,1.79v5.46h4.06c2.64,0,3.6-.81,3.6-2.72s-1-2.74-3.6-2.74Z"/><path class="cls-22" d="M694,243.74h-8.49v4.18h7.84v1.7h-7.84V254h8.67v1.79H683.55V242H694Z"/><path class="cls-23" d="M718.45,243.23l-.84,1.54a10.46,10.46,0,0,0-4.87-1.32c-1.66,0-2.88.69-2.88,2.09a1.37,1.37,0,0,0,.63,1.16,10.55,10.55,0,0,0,2.64.93,21.9,21.9,0,0,1,3.83,1.24,3.17,3.17,0,0,1,1.85,2.5,4.87,4.87,0,0,1,0,.55,3.41,3.41,0,0,1-1.52,3,6.8,6.8,0,0,1-3.92,1,11.66,11.66,0,0,1-6.27-1.75l.91-1.5a11.07,11.07,0,0,0,5.56,1.54c1.81,0,3.15-.71,3.15-2.07a1.6,1.6,0,0,0-.83-1.6,3.19,3.19,0,0,0-1.1-.45,13.15,13.15,0,0,0-1.58-.43l-.65-.18a12.26,12.26,0,0,1-3.64-1.36,2.58,2.58,0,0,1-1.23-2.37c0-2.77,2.37-4,5.25-4A10.61,10.61,0,0,1,718.45,243.23Z"/><path class="cls-24" d="M758.76,243.74h-8.49v4.18h7.84v1.7h-7.84V254h8.67v1.79H748.28V242h10.48Z"/><path class="cls-25" d="M785,255.74h-2.13l-8.18-10.62v10.62h-2V242h2.13l8.18,10.62V242h2Z"/><path class="cls-26" d="M817.23,254h7.56v1.79h-9.55V242h2Z"/><path class="cls-27" d="M840.45,255.74h-2V242h2Z"/><path class="cls-28" d="M867.41,243.66l-1.3,1.36a5.61,5.61,0,0,0-3.83-1.43,5.3,5.3,0,0,0-3.78,1.51,5,5,0,0,0-1.56,3.75,5.12,5.12,0,0,0,1.52,3.7,5.06,5.06,0,0,0,3.71,1.52,6.13,6.13,0,0,0,3.92-1.32v-2.84h-3.81v-1.44H868v5.36a8.78,8.78,0,0,1-5.83,2.11,7.17,7.17,0,0,1-7.29-7.09,6.77,6.77,0,0,1,1-3.69,7.41,7.41,0,0,1,6.38-3.41A7.65,7.65,0,0,1,867.41,243.66Z"/><path class="cls-29" d="M894.92,255.74H892.8l-8.18-10.62v10.62h-2V242h2.13L893,252.57V242h1.95Z"/><path class="cls-30" d="M920.27,243.74h-8.49v4.18h7.84v1.7h-7.84V254h8.67v1.79H909.79V242h10.48Z"/><path class="cls-31" d="M239.87,251.32,177,10.71a14.32,14.32,0,0,0-25.29-5L2.47,204a12.14,12.14,0,0,0-2.26,4.94c-1.7,8.64,7,17.42,17.12,14.49l79.09-22.92a61.78,61.78,0,0,1,55.24,10.67l67.16,52.55c8.24,6.44,19.56,1.63,21.26-7A12.14,12.14,0,0,0,239.87,251.32Zm-88.8-81.14c-1.17,4.14-6,3.28-6,3.28s-33.42-10.34-38.73-12.16-4-7.23-4-7.23a5.74,5.74,0,0,1,6.49-3.56l39.46,12.57C153.75,164.87,151.07,170.18,151.07,170.18ZM147.93,160l-37.24-12.09,2.87-9.42-41.4-13.29c3.63-4.71,12.1-15.77,12.1-15.77L119.69,121l3.34-9.93,36.49,12.07Zm19.58-42.77c-1.16,4.15-5.95,3.29-5.95,3.29s-33.43-10.35-38.74-12.17-4-7.22-4-7.22a5.74,5.74,0,0,1,6.5-3.56l39.46,12.57C170.19,111.9,167.51,117.2,167.51,117.2Z"/><path class="cls-32" d="M161.94,41.59c9.52,21.58,12.23,45.26,15.19,68.44,3,23.44,5.72,46.89,11.78,69.15,6.23,22.88,14.81,44.91,24,66.73a15.15,15.15,0,0,0,4-1.78,15.74,15.74,0,0,0,1.68-1.23c.27-.23.53-.46.78-.71a16,16,0,0,0,1.41-1.55c.22-.28.43-.56.63-.85a15.16,15.16,0,0,0,1.08-1.83,15.39,15.39,0,0,0,1.54-5.19c0-.38.07-.75.09-1.13a16.51,16.51,0,0,0-.08-2.32,18.64,18.64,0,0,0-.43-2.38l-49-191.18c-.1-.43-.23-.84-.36-1.24l-.15-.39c-.09-.26-.19-.53-.3-.78s-.13-.29-.2-.44-.2-.45-.32-.66-.16-.3-.24-.45-.22-.4-.34-.59-.19-.29-.28-.43l-.37-.54-.32-.4-.39-.49L171,29a5.77,5.77,0,0,0-.42-.44l-.37-.36c-.14-.14-.29-.27-.44-.4l-.4-.33-.46-.36-.42-.3-.47-.31-.46-.28-.48-.27-.48-.25-.47-.22-.51-.22-.47-.18-.55-.19-.43-.13-.6-.17-.35-.08-.71-.14-.07,0a15.16,15.16,0,0,0-3.92-.15h-.16l-.84.11-.21,0-.8.17-.23.05-.78.22-.24.07-.76.28-.24.09-.48.21A171.66,171.66,0,0,1,161.94,41.59Z"/><path class="cls-33" d="M154.18,40.77c-17.24,16.11-29,36.82-40.85,57-12,20.37-23.68,40.87-38,59-14.71,18.59-31.25,35.48-48.24,51.95a15.14,15.14,0,0,1-4-5c-.16-.32-.3-.63-.44-.95a15.56,15.56,0,0,1-.68-2c-.1-.34-.18-.68-.25-1a15,15,0,0,1-.27-2.11,15.34,15.34,0,0,1,.62-5.39c.11-.35.23-.71.36-1.07a16,16,0,0,1,1-2.1,16.32,16.32,0,0,1,1.33-2L144.82,30.43c.27-.35.54-.68.83-1,.09-.11.19-.2.28-.3s.39-.41.59-.6.23-.22.35-.33.37-.33.56-.48l.39-.31.55-.42.43-.28c.18-.12.36-.24.55-.35l.45-.25.55-.3.47-.22.56-.24.49-.18.56-.2.5-.14a5.12,5.12,0,0,1,.56-.15l.51-.11.55-.1.53-.08c.18,0,.36,0,.54-.06l.54,0,.53,0c.19,0,.37,0,.56,0l.5,0,.58,0,.44.05.63.08.35.07c.23,0,.47.08.7.14l.08,0a15,15,0,0,1,3.66,1.39l.14.08c.25.13.49.28.73.43l.18.11.67.46.2.15.62.5.2.17c.2.17.4.36.59.54l.19.19c.12.12.23.25.35.38A170.62,170.62,0,0,0,154.18,40.77Z"/><ellipse class="cls-34" cx="120.15" cy="227.56" rx="43.23" ry="55.05" transform="translate(-124.59 307.06) rotate(-80.16)"/></g></g></g></svg>