<svg xmlns="http://www.w3.org/2000/svg" xmlns:xlink="http://www.w3.org/1999/xlink" viewBox="0 0 775 510.92"><defs><style>.cls-1{isolation:isolate;}.cls-2{fill:url(#Dégradé_sans_nom_85);}.cls-3{fill:#efeeeb;}.cls-4,.cls-5{opacity:0.3;}.cls-4,.cls-5,.cls-6{mix-blend-mode:multiply;}.cls-4{fill:url(#linear-gradient);}.cls-5{fill:url(#linear-gradient-2);}.cls-6{opacity:0.4;fill:url(#Dégradé_sans_nom_3);}.cls-7{fill:#170006;}.cls-8{fill:#f9124e;}</style><linearGradient id="Dégradé_sans_nom_85" x1="212.94" y1="317.53" x2="491.19" y2="317.53" gradientTransform="translate(-24.13 -125.82) rotate(-4.33)" gradientUnits="userSpaceOnUse"><stop offset="0" stop-color="#9f042c"/><stop offset="0.18" stop-color="#a5052e"/><stop offset="0.42" stop-color="#b60835"/><stop offset="0.7" stop-color="#d20c3f"/><stop offset="1" stop-color="#f8124e"/><stop offset="1" stop-color="#f9124e"/></linearGradient><linearGradient id="linear-gradient" x1="374.79" y1="590.45" x2="349.34" y2="594.94" gradientTransform="translate(31.85 -405.56) rotate(-4.33)" gradientUnits="userSpaceOnUse"><stop offset="0" stop-color="#170006" stop-opacity="0.96"/><stop offset="0.2" stop-color="#968c8e" stop-opacity="0.43"/><stop offset="0.47" stop-color="#e7e5e5" stop-opacity="0.1"/><stop offset="1" stop-color="#fff" stop-opacity="0"/></linearGradient><linearGradient id="linear-gradient-2" x1="-3345.59" y1="-493.91" x2="-3371.03" y2="-489.42" gradientTransform="matrix(-0.89, -0.46, -0.46, 0.89, -2879.46, -976.43)" xlink:href="#linear-gradient"/><linearGradient id="Dégradé_sans_nom_3" x1="-392.87" y1="-652.72" x2="-527.18" y2="-668.65" gradientTransform="translate(741.26 909.17) scale(0.68 0.95)" gradientUnits="userSpaceOnUse"><stop offset="0" stop-color="#170006" stop-opacity="0.96"/><stop offset="0.48" stop-color="#331f24" stop-opacity="0.84"/><stop offset="0.8" stop-color="#8e8386" stop-opacity="0.47"/><stop offset="1" stop-color="#fff" stop-opacity="0"/></linearGradient></defs><g class="cls-1"><g id="Layer_2" data-name="Layer 2"><g id="Calque_1" data-name="Calque 1"><path class="cls-2" d="M396.37,6.72,220.69,240.08A14.29,14.29,0,0,0,218,245.9c-2,10.16,8.27,20.49,20.15,17l93.08-27a72.68,72.68,0,0,1,65,12.57l79.06,61.84c9.69,7.59,23,1.92,25-8.19a14.09,14.09,0,0,0-.24-6.39l-74-283.2A16.85,16.85,0,0,0,396.37,6.72Z"/><path class="cls-3" d="M316.5,128.61l42.15,13.79,3.94-11.68,43,14.2-13.65,43.37-43.82-14.24L351.44,163l-49.18-15.78C306.53,141.63,316.5,128.61,316.5,128.61Z"/><path class="cls-3" d="M345.91,177.15s-5.54-1.18-7.64,4.19c0,0-1.53,6.36,4.72,8.5s45.59,14.32,45.59,14.32,5.64,1,7-3.86c0,0,3.15-6.25-3.23-8.35Z"/><path class="cls-3" d="M365.27,114.8s-5.55-1.18-7.64,4.19c0,0-1.53,6.37,4.72,8.51s45.58,14.31,45.58,14.31,5.64,1,7-3.86c0,0,3.15-6.25-3.23-8.35Z"/><path class="cls-4" d="M405.94,48.22c11.3,25.62,14.51,53.73,18,81.25,3.55,27.81,6.79,55.65,14,82.08,7.39,27.15,17.57,53.3,28.43,79.2a18,18,0,0,0,4.73-2.11,16.85,16.85,0,0,0,2-1.47c.31-.26.62-.54.92-.83a17.12,17.12,0,0,0,1.67-1.84c.26-.33.51-.67.75-1a19.61,19.61,0,0,0,1.28-2.17,18.1,18.1,0,0,0,1.83-6.17c.05-.44.09-.89.1-1.34a18.19,18.19,0,0,0-.09-2.75,20.56,20.56,0,0,0-.51-2.83L421,41.3c-.12-.5-.27-1-.43-1.47,0-.15-.12-.3-.17-.46s-.23-.62-.36-.92-.16-.35-.24-.52-.24-.54-.37-.79l-.3-.53c-.13-.24-.26-.47-.4-.7s-.22-.34-.34-.51-.28-.43-.43-.64-.25-.32-.38-.49-.3-.39-.46-.58l-.41-.45c-.17-.18-.33-.36-.5-.53l-.44-.43-.53-.47c-.15-.13-.31-.27-.47-.39s-.36-.29-.55-.42-.33-.25-.5-.37l-.56-.37-.54-.33c-.18-.11-.37-.21-.57-.31l-.57-.3-.56-.26-.61-.27-.55-.2c-.22-.08-.43-.17-.65-.24l-.52-.15-.71-.2-.42-.09c-.27-.06-.55-.13-.83-.18h-.09a18.18,18.18,0,0,0-4.66-.18h-.18l-1,.13-.25,0c-.32.06-.64.12-.95.2l-.29.06c-.3.08-.61.16-.92.26l-.29.09a9.44,9.44,0,0,0-.89.32l-.29.11-.57.25A207.08,207.08,0,0,1,405.94,48.22Z"/><path class="cls-5" d="M399.58,47c-20.46,19.12-34.46,43.7-48.49,67.63-14.19,24.19-28.11,48.51-45.11,70-17.46,22.07-37.09,42.11-57.25,61.66a17.87,17.87,0,0,1-3.53-3.79,21.66,21.66,0,0,1-1.26-2.13c-.18-.37-.36-.75-.52-1.13a18.75,18.75,0,0,1-.81-2.36c-.11-.4-.21-.8-.29-1.21a19,19,0,0,1-.33-2.5,18.28,18.28,0,0,1,.74-6.4c.13-.42.27-.84.43-1.27a18.68,18.68,0,0,1,1.17-2.49,19.83,19.83,0,0,1,1.58-2.4L388.47,34.77c.32-.41.65-.8,1-1.18l.34-.35q.34-.37.69-.72l.43-.38c.21-.2.43-.4.65-.58l.48-.37.64-.49.51-.34.66-.41.53-.3.66-.35.55-.26.67-.29.57-.22.67-.23.59-.17.67-.18.61-.13c.21-.05.43-.08.65-.12l.63-.09.64-.07.65-.05.62,0h.66l.59,0,.69,0,.53.07c.25,0,.5,0,.74.09l.42.08c.28.05.56.1.83.17l.09,0a18.18,18.18,0,0,1,4.35,1.66l.17.09c.29.16.58.33.86.51l.21.13c.28.18.54.36.8.55l.24.17.74.6.23.2c.24.21.48.42.7.65l.22.21c.15.15.29.3.43.46A202.85,202.85,0,0,0,399.58,47Z"/><ellipse class="cls-6" cx="359.2" cy="267.83" rx="50.88" ry="64.79" transform="translate(33.94 575.99) rotate(-80.16)"/><path class="cls-7" d="M105.71,385.77A47.46,47.46,0,0,0,93,378.3a108,108,0,0,0-14.63-4.66q-7.59-1.84-14.62-3.36a70.66,70.66,0,0,1-12.68-3.9,24.5,24.5,0,0,1-9-6.18q-3.36-3.78-3.36-10.07a16.81,16.81,0,0,1,2.6-9.53,17,17,0,0,1,7.37-6.07A27.06,27.06,0,0,1,60,332.36a29.11,29.11,0,0,1,12.79,2.71,21.28,21.28,0,0,1,8.77,7.48,20.21,20.21,0,0,1,3.1,10.15,1.87,1.87,0,0,0,1.88,1.76h27.23a1.88,1.88,0,0,0,1.89-1.92q-.44-13.71-7.12-23.54-7.16-10.5-20.15-16.14t-30.77-5.63q-16.47,0-28.71,5.52a43.54,43.54,0,0,0-19,15.71Q3.22,338.65,3.22,353q0,11,3.36,18.41a34.72,34.72,0,0,0,8.89,12.14A46.15,46.15,0,0,0,28,391.19a108.66,108.66,0,0,0,14.63,4.88q7.58,1.95,14.63,3.68A74.43,74.43,0,0,1,69.85,404a25.91,25.91,0,0,1,8.89,6.29q3.36,3.8,3.36,10.07a15.47,15.47,0,0,1-10.4,15.39,31.44,31.44,0,0,1-11.49,1.95,33.34,33.34,0,0,1-14.41-2.93,21.69,21.69,0,0,1-9.53-8.45A23.61,23.61,0,0,1,33,415.16a1.88,1.88,0,0,0-1.88-1.76H1.89A1.89,1.89,0,0,0,0,415.32a49.24,49.24,0,0,0,6.8,24.52q6.83,11.27,20.26,17.44t33.15,6.17Q78,463.45,91,458t20-15.93q7-10.5,7-25.89,0-11.06-3.36-18.42A33.19,33.19,0,0,0,105.71,385.77Z"/><path class="cls-7" d="M229.18,357q-13.44-7.26-31.64-7.26T166,357a51.94,51.94,0,0,0-20.7,20.15Q138,390,138,407.17q0,16.9,7.36,29.9A51.69,51.69,0,0,0,166,457.33q13.32,7.26,31.52,7.26t31.64-7.26a50.86,50.86,0,0,0,20.69-20.26q7.26-13,7.26-29.9,0-17.12-7.26-30A51.1,51.1,0,0,0,229.18,357Zm-9.86,66.41a22.62,22.62,0,0,1-8.45,10.29,26.59,26.59,0,0,1-26.65,0,22.56,22.56,0,0,1-8.45-10.29,46.53,46.53,0,0,1,0-32.5,22.37,22.37,0,0,1,21.77-14.09,25,25,0,0,1,10.4,2.06,21.76,21.76,0,0,1,7.81,6,26,26,0,0,1,4.87,9.53,46.32,46.32,0,0,1,1.63,12.79A40.58,40.58,0,0,1,219.32,423.42Z"/><path class="cls-7" d="M367.9,355.87q-13.44-7.26-31.64-7.26t-31.53,7.26A52,52,0,0,0,284,376q-7.37,12.9-7.37,30,0,16.91,7.37,29.91a51.79,51.79,0,0,0,20.69,20.26q13.33,7.24,31.53,7.25t31.64-7.25a50.92,50.92,0,0,0,20.69-20.26q7.26-13,7.26-29.91,0-17.11-7.26-30A51.1,51.1,0,0,0,367.9,355.87ZM358,422.28a22.7,22.7,0,0,1-8.45,10.3,26.67,26.67,0,0,1-26.66,0,22.7,22.7,0,0,1-8.45-10.3,46.68,46.68,0,0,1,0-32.5,22.35,22.35,0,0,1,21.78-14.08,25,25,0,0,1,10.4,2.06,21.42,21.42,0,0,1,7.8,6,25.89,25.89,0,0,1,4.88,9.53A46.32,46.32,0,0,1,361,406,40.56,40.56,0,0,1,358,422.28Z"/><path class="cls-7" d="M578.34,362.06a31.46,31.46,0,0,0-12.13-8,43.89,43.89,0,0,0-15.28-2.6,42.91,42.91,0,0,0-19.61,4.66,40.91,40.91,0,0,0-15.5,14c-.35.53-.68,1.08-1,1.64a34.11,34.11,0,0,0-6.56-10.09,30.67,30.67,0,0,0-11.81-7.69,43.65,43.65,0,0,0-15.06-2.5A35,35,0,0,0,461,357.73a38.61,38.61,0,0,0-10.39,10.81,1.89,1.89,0,0,1-3.47-1v-12a1.89,1.89,0,0,0-1.89-1.89H417.82a1.89,1.89,0,0,0-1.89,1.89V461.58a1.89,1.89,0,0,0,1.89,1.89h30.46a1.89,1.89,0,0,0,1.89-1.89v-51q0-11.7,2.71-18.31t7-9.43a16.83,16.83,0,0,1,9.32-2.81,20,20,0,0,1,6.72,1.08,11.94,11.94,0,0,1,5.2,3.68,18.4,18.4,0,0,1,3.35,7,44.78,44.78,0,0,1,1.2,11.38v58.35a1.89,1.89,0,0,0,1.88,1.89h29.6a1.89,1.89,0,0,0,1.88-1.89v-51q0-11.7,2.71-18.31t7.05-9.43a16.47,16.47,0,0,1,9.1-2.81,20.58,20.58,0,0,1,6.93,1.08,12.68,12.68,0,0,1,5.31,3.68,17.52,17.52,0,0,1,3.47,7,45.29,45.29,0,0,1,1.19,11.38v58.35a1.89,1.89,0,0,0,1.89,1.89h30.45a1.89,1.89,0,0,0,1.89-1.89V395a59.69,59.69,0,0,0-2.81-19.4A37.42,37.42,0,0,0,578.34,362.06Z"/><path class="cls-7" d="M684.83,354.88l-23,66.4a1.89,1.89,0,0,1-3.58,0l-20.93-66.3a1.89,1.89,0,0,0-1.8-1.32H603.09a1.89,1.89,0,0,0-1.76,2.57l40.95,105.47a1.91,1.91,0,0,1,0,1.39l-18.15,45.29a1.89,1.89,0,0,0,1.76,2.59h29.3a1.89,1.89,0,0,0,1.75-1.19L718.26,356.2a1.89,1.89,0,0,0-1.76-2.59H686.62A1.9,1.9,0,0,0,684.83,354.88Z"/><path class="cls-7" d="M700.07,453.28a6.3,6.3,0,0,0-3.05-.7,6.21,6.21,0,0,0-3,.7,4.92,4.92,0,0,0-2,1.94,6.24,6.24,0,0,0,0,5.78,5,5,0,0,0,2,1.95,6.21,6.21,0,0,0,3,.7,6.3,6.3,0,0,0,3.05-.7,4.92,4.92,0,0,0,2-1.95,6.32,6.32,0,0,0,0-5.78A4.83,4.83,0,0,0,700.07,453.28Z"/><path class="cls-7" d="M722.45,418.37h-8a1,1,0,0,0-1,1v10.12a1,1,0,0,1-1,1h-3.76a1,1,0,0,0-1,1v5.46a1,1,0,0,0,1,1h3.76a1,1,0,0,1,1,1v12.92a25.24,25.24,0,0,0,.63,6.1,8.35,8.35,0,0,0,2,3.93,8.24,8.24,0,0,0,3.7,2.1,21.12,21.12,0,0,0,5.64.65c.91,0,1.87,0,2.88-.13s1.92-.21,2.75-.36a11,11,0,0,0,1.25-.3,1,1,0,0,0,.65-.92v-5.93a1,1,0,0,0-1.31-.9,6.14,6.14,0,0,1-.95.29,12,12,0,0,1-2.46.26,7.77,7.77,0,0,1-2.85-.43,2.68,2.68,0,0,1-1.54-1.57,9.19,9.19,0,0,1-.46-3.25V438.8a1,1,0,0,1,1-1h7.7a1,1,0,0,0,1-1V431.4a1,1,0,0,0-1-1h-7.7a1,1,0,0,1-1-1V419.34A1,1,0,0,0,722.45,418.37Z"/><path class="cls-7" d="M774.11,437.08a11.36,11.36,0,0,0-2.46-4.1,9.5,9.5,0,0,0-3.8-2.42,14.49,14.49,0,0,0-4.91-.79,12,12,0,0,0-6.75,1.9,11.79,11.79,0,0,0-2.68,2.46,1,1,0,0,1-1.71-.61V432a1.55,1.55,0,0,0-1.56-1.55h-6.91a1,1,0,0,0-1,1v31.28a1,1,0,0,0,1,1h8.42a1,1,0,0,0,1-1v-15a15,15,0,0,1,.82-5.54,5.68,5.68,0,0,1,2.22-2.85,6,6,0,0,1,3.12-.85,8.09,8.09,0,0,1,2.42.33,4.2,4.2,0,0,1,1.8,1.11,5.05,5.05,0,0,1,1.15,2.13,12.68,12.68,0,0,1,.39,3.44v17.25a1,1,0,0,0,1,1H774a1,1,0,0,0,1-1V442.94A17.32,17.32,0,0,0,774.11,437.08Z"/><path class="cls-8" d="M67.24,494l-.74,1.35a9.21,9.21,0,0,0-4.27-1.16c-1.45,0-2.52.61-2.52,1.83a1.2,1.2,0,0,0,.55,1,9.13,9.13,0,0,0,2.32.81,20.38,20.38,0,0,1,3.35,1.09,2.76,2.76,0,0,1,1.62,2.2,3.7,3.7,0,0,1,0,.48,3,3,0,0,1-1.33,2.61,6,6,0,0,1-3.44.91,10.23,10.23,0,0,1-5.49-1.53l.79-1.32A9.72,9.72,0,0,0,63,503.59c1.59,0,2.77-.62,2.77-1.81a1.39,1.39,0,0,0-.73-1.4,2.91,2.91,0,0,0-1-.4c-.51-.16-.7-.22-1.39-.38l-.57-.16a10.17,10.17,0,0,1-3.19-1.19,2.25,2.25,0,0,1-1.07-2.07c0-2.44,2.07-3.53,4.59-3.53A9.4,9.4,0,0,1,67.24,494Z"/><path class="cls-8" d="M81.66,504.92H79.91V492.83h1.75Z"/><path class="cls-8" d="M103.44,494.33h-4v10.59H97.66V494.33h-4v-1.5h9.81Z"/><path class="cls-8" d="M124.6,494.4h-7.45v3.66H124v1.49h-6.88v3.8h7.6v1.57H115.4V492.83h9.2Z"/><path class="cls-8" d="M150.47,492.83h4.76a6.05,6.05,0,1,1,0,12.09h-4.76Zm1.74,1.57v9h3a4.69,4.69,0,0,0,3.31-1.28,4.2,4.2,0,0,0,1.37-3.2,4.12,4.12,0,0,0-1.37-3.17,4.62,4.62,0,0,0-3.31-1.3Z"/><path class="cls-8" d="M174.87,492.71l-1.63,2.47-.52-.24.94-1.94a.77.77,0,0,1-.52-.73c-.09-1.07,2-1.07,1.86,0A.87.87,0,0,1,174.87,492.71Z"/><path class="cls-8" d="M196.07,494.4h-7.45v3.66h6.88v1.49h-6.88v3.8h7.6v1.57h-9.34V492.83h9.19Z"/><path class="cls-8" d="M219.07,504.92H217.2L210,495.61v9.31h-1.71V492.83h1.87l7.17,9.31v-9.31h1.71Z"/><path class="cls-8" d="M242.91,495l-1.48.88A4.29,4.29,0,0,0,238,494.3a4.54,4.54,0,0,0-4.55,4.57,4.52,4.52,0,0,0,4.55,4.58,4.29,4.29,0,0,0,3.47-1.62l1.48.88a6.23,6.23,0,1,1,0-7.67Z"/><path class="cls-8" d="M265.9,504.92h-1.75v-5.3H256.9v5.3h-1.75V492.83h1.75v5.22h7.25v-5.22h1.75Z"/><path class="cls-8" d="M288.24,494.4H280.8v3.66h6.87v1.49H280.8v3.8h7.6v1.57h-9.35V492.83h9.19Zm-3.59-2.59h-1.44L281,489.06h1.76Z"/><path class="cls-8" d="M300.63,492.83h5.22c3.59,0,5.06,1.16,5.06,3.87,0,2-.83,3.16-2.76,3.59l3.18,4.63h-2l-3-4.4c-.26,0-.56,0-.89,0h-3.07v4.37h-1.75Zm1.75,1.57v4.79h3.56c2.31,0,3.16-.71,3.16-2.39s-.85-2.4-3.16-2.4Z"/><path class="cls-8" d="M332.5,494.4h-7.45v3.66h6.88v1.49h-6.88v3.8h7.6v1.57h-9.34V492.83h9.19Z"/><path class="cls-8" d="M353.91,494l-.75,1.35a9.14,9.14,0,0,0-4.26-1.16c-1.45,0-2.53.61-2.53,1.83a1.19,1.19,0,0,0,.56,1,9,9,0,0,0,2.31.81,20,20,0,0,1,3.35,1.09,2.77,2.77,0,0,1,1.63,2.2,3.7,3.7,0,0,1,0,.48,3,3,0,0,1-1.33,2.61,6,6,0,0,1-3.44.91,10.27,10.27,0,0,1-5.5-1.53l.8-1.32a9.69,9.69,0,0,0,4.87,1.35c1.59,0,2.76-.62,2.76-1.81a1.38,1.38,0,0,0-.72-1.4,2.88,2.88,0,0,0-1-.4,13.42,13.42,0,0,0-1.38-.38l-.57-.16a10.35,10.35,0,0,1-3.2-1.19,2.25,2.25,0,0,1-1.07-2.07c0-2.44,2.07-3.53,4.6-3.53A9.4,9.4,0,0,1,353.91,494Z"/><path class="cls-8" d="M389.25,494.4H381.8v3.66h6.88v1.49H381.8v3.8h7.6v1.57h-9.35V492.83h9.2Z"/><path class="cls-8" d="M412.25,504.92h-1.87l-7.17-9.31v9.31H401.5V492.83h1.87l7.16,9.31v-9.31h1.72Z"/><path class="cls-8" d="M440.5,503.35h6.64v1.57h-8.38V492.83h1.74Z"/><path class="cls-8" d="M460.86,504.92h-1.75V492.83h1.75Z"/><path class="cls-8" d="M484.49,494.33l-1.14,1.19a4.9,4.9,0,0,0-3.35-1.26,4.61,4.61,0,0,0-3.31,1.33,4.34,4.34,0,0,0-1.37,3.28,4.49,4.49,0,0,0,1.33,3.25,4.44,4.44,0,0,0,3.25,1.33,5.43,5.43,0,0,0,3.44-1.15v-2.49H480v-1.26h5v4.7a7.71,7.71,0,0,1-5.11,1.84,6.29,6.29,0,0,1-6.39-6.22,5.87,5.87,0,0,1,.9-3.23,6.48,6.48,0,0,1,5.59-3A6.68,6.68,0,0,1,484.49,494.33Z"/><path class="cls-8" d="M508.62,504.92h-1.87l-7.17-9.31v9.31h-1.71V492.83h1.87l7.17,9.31v-9.31h1.71Z"/><path class="cls-8" d="M530.84,494.4H523.4v3.66h6.87v1.49H523.4v3.8H531v1.57h-9.35V492.83h9.19Z"/></g></g></g></svg>