<svg xmlns="http://www.w3.org/2000/svg" xmlns:xlink="http://www.w3.org/1999/xlink" viewBox="0 0 409.63 462.29"><defs><style>.cls-1{isolation:isolate;}.cls-2{fill:url(#Dégradé_sans_nom_85);}.cls-3{fill:#efeeeb;}.cls-4,.cls-5{opacity:0.3;}.cls-4,.cls-5,.cls-6{mix-blend-mode:multiply;}.cls-4{fill:url(#linear-gradient);}.cls-5{fill:url(#linear-gradient-2);}.cls-6{opacity:0.4;fill:url(#Dégradé_sans_nom_3);}</style><linearGradient id="Dégradé_sans_nom_85" x1="-18.8" y1="468.69" x2="384.19" y2="468.69" gradientTransform="translate(-24.75 -215.68) rotate(-4.33)" gradientUnits="userSpaceOnUse"><stop offset="0" stop-color="#9f042c"/><stop offset="0.18" stop-color="#a5052e"/><stop offset="0.42" stop-color="#b60835"/><stop offset="0.7" stop-color="#d20c3f"/><stop offset="1" stop-color="#f8124e"/><stop offset="1" stop-color="#f9124e"/></linearGradient><linearGradient id="linear-gradient" x1="250.1" y1="740.8" x2="213.24" y2="747.3" gradientTransform="translate(31.23 -495.42) rotate(-4.33)" gradientUnits="userSpaceOnUse"><stop offset="0" stop-color="#170006" stop-opacity="0.96"/><stop offset="0.2" stop-color="#968c8e" stop-opacity="0.43"/><stop offset="0.47" stop-color="#e7e5e5" stop-opacity="0.1"/><stop offset="1" stop-color="#fff" stop-opacity="0"/></linearGradient><linearGradient id="linear-gradient-2" x1="-5480.59" y1="-915.83" x2="-5517.45" y2="-909.33" gradientTransform="matrix(-0.89, -0.46, -0.46, 0.89, -5141.82, -1529.1)" xlink:href="#linear-gradient"/><linearGradient id="Dégradé_sans_nom_3" x1="-1475.07" y1="417.17" x2="-1669.6" y2="394.11" gradientTransform="translate(1376.9 17.34) scale(0.68 0.95)" gradientUnits="userSpaceOnUse"><stop offset="0" stop-color="#170006" stop-opacity="0.96"/><stop offset="0.48" stop-color="#331f24" stop-opacity="0.84"/><stop offset="0.8" stop-color="#8e8386" stop-opacity="0.47"/><stop offset="1" stop-color="#fff" stop-opacity="0"/></linearGradient></defs><g class="cls-1"><g id="Layer_2" data-name="Layer 2"><g id="Calque_1" data-name="Calque 1"><path class="cls-2" d="M258.65,9.74,4.2,347.73a20.64,20.64,0,0,0-3.84,8.42c-2.9,14.72,12,29.68,29.19,24.69l134.81-39.07A105.3,105.3,0,0,1,258.53,360L373,449.54c14,11,33.34,2.78,36.23-11.87a20.54,20.54,0,0,0-.35-9.24L301.76,18.25C296.6-1.5,270.92-6.57,258.65,9.74Z"/><path class="cls-3" d="M143,186.27l61.06,20,5.69-16.91,62.21,20.56-19.76,62.82-63.48-20.62L193.58,236l-71.24-22.86C128.53,205.13,143,186.27,143,186.27Z"/><path class="cls-3" d="M185.57,256.58s-8-1.72-11.07,6.06c0,0-2.21,9.22,6.84,12.32s66,20.74,66,20.74,8.17,1.46,10.15-5.6c0,0,4.57-9.05-4.68-12.09Z"/><path class="cls-3" d="M213.61,166.27s-8-1.71-11.07,6.07c0,0-2.22,9.22,6.84,12.32s66,20.74,66,20.74,8.17,1.46,10.16-5.6c0,0,4.57-9.05-4.68-12.1Z"/><path class="cls-4" d="M272.51,69.85c16.36,37.1,21,77.81,26.1,117.66,5.14,40.29,9.84,80.61,20.26,118.89,10.71,39.32,25.45,77.19,41.18,114.7a25.7,25.7,0,0,0,6.85-3.05,27.24,27.24,0,0,0,2.9-2.12c.45-.39.9-.79,1.33-1.21a25.66,25.66,0,0,0,2.43-2.67c.37-.47.73-1,1.07-1.46a26.53,26.53,0,0,0,4.52-12.08c.07-.64.12-1.28.14-1.93a28.2,28.2,0,0,0-.13-4,28.82,28.82,0,0,0-.75-4.1L294.27,59.82q-.27-1.09-.63-2.13c-.07-.22-.17-.44-.25-.66q-.24-.69-.51-1.35c-.11-.26-.23-.5-.35-.75s-.35-.77-.54-1.14l-.42-.76c-.2-.35-.39-.69-.59-1s-.32-.5-.49-.74-.41-.63-.63-.92-.36-.48-.54-.71-.45-.57-.68-.84l-.59-.66c-.24-.26-.48-.52-.72-.76l-.64-.62-.76-.69-.69-.57-.79-.61-.73-.52c-.26-.19-.54-.36-.81-.54l-.78-.48-.82-.45c-.27-.15-.55-.3-.82-.43s-.55-.26-.82-.38l-.88-.39-.8-.3c-.32-.11-.63-.23-.95-.33l-.74-.22c-.35-.11-.69-.21-1-.3l-.6-.13c-.4-.09-.8-.18-1.2-.25l-.14,0a25.78,25.78,0,0,0-6.74-.26h-.26c-.49.05-1,.12-1.44.2l-.37,0c-.46.08-.91.18-1.37.28l-.41.1c-.45.11-.89.23-1.33.37L261,41c-.44.14-.87.3-1.31.46l-.41.17c-.28.11-.55.24-.82.36A294.93,294.93,0,0,1,272.51,69.85Z"/><path class="cls-5" d="M263.3,68.13c-29.63,27.69-49.9,63.3-70.23,98-20.55,35-40.71,70.27-65.33,101.38-25.29,32-53.73,61-82.93,89.3a25.62,25.62,0,0,1-5.1-5.5,24.42,24.42,0,0,1-1.82-3.08c-.27-.54-.53-1.08-.76-1.63A27.48,27.48,0,0,1,36,343.14q-.24-.88-.42-1.77a29.13,29.13,0,0,1-.47-3.62,26.32,26.32,0,0,1,1.07-9.26c.18-.61.39-1.23.62-1.84A28.69,28.69,0,0,1,38.44,323a30.73,30.73,0,0,1,2.3-3.48L247.22,50.36c.45-.6.93-1.16,1.41-1.71.16-.18.33-.34.49-.51.33-.36.66-.71,1-1l.61-.55c.32-.29.63-.58.95-.84s.46-.36.69-.54.62-.48.93-.7l.74-.49c.32-.21.63-.41.95-.6l.77-.44,1-.5.81-.38,1-.42.83-.31c.32-.12.65-.23,1-.33s.57-.18.86-.26l1-.25.88-.2,1-.17c.3,0,.6-.1.9-.13l.93-.1c.31,0,.62-.06.93-.07s.61,0,.91,0h1l.85,0c.33,0,.67,0,1,.06s.51.06.77.09.71.08,1.07.14l.6.11c.41.08.81.15,1.21.24l.13,0a26.76,26.76,0,0,1,6.31,2.4c.07.05.15.08.23.13.42.23.84.48,1.25.74l.31.19c.39.25.78.52,1.15.8l.35.25c.36.27.72.57,1.08.86l.33.29c.35.3.68.61,1,.94l.33.31.6.65A296.46,296.46,0,0,0,263.3,68.13Z"/><ellipse class="cls-6" cx="204.81" cy="387.91" rx="73.69" ry="93.84" transform="translate(-212.38 523.44) rotate(-80.16)"/></g></g></g></svg>