<?xml version="1.0" standalone="no"?>
<!DOCTYPE svg PUBLIC "-//W3C//DTD SVG 20010904//EN"
 "http://www.w3.org/TR/2001/REC-SVG-20010904/DTD/svg10.dtd">
<svg version="1.0" xmlns="http://www.w3.org/2000/svg"
 width="512.000000pt" height="512.000000pt" viewBox="0 0 512.000000 512.000000"
 preserveAspectRatio="xMidYMid meet">

<g transform="translate(0.000000,512.000000) scale(0.100000,-0.100000)"
fill="#000000" stroke="none">
<path d="M1 3903 c1 -691 5 -1181 10 -1133 19 204 77 464 144 646 53 145 182
403 265 529 332 505 826 875 1400 1048 271 82 502 112 805 104 400 -10 707
-84 1060 -257 259 -126 476 -281 681 -485 435 -434 700 -1005 747 -1615 2 -25
4 501 5 1168 l2 1212 -2560 0 -2560 0 1 -1217z"/>
<path d="M2355 4693 c-95 -9 -283 -46 -394 -78 -761 -219 -1360 -871 -1515
-1648 -106 -528 -22 -1042 246 -1509 90 -158 205 -306 347 -449 276 -275 595
-460 965 -559 61 -17 131 -30 156 -30 88 1 168 59 190 138 6 23 10 207 10 483
l0 447 -37 7 c-21 4 -72 20 -113 36 -259 99 -477 328 -569 596 -43 127 -51
216 -51 552 0 286 2 320 19 356 41 89 98 115 251 115 l110 0 0 275 c0 295 4
320 53 374 72 79 222 79 294 0 49 -54 53 -79 53 -374 l0 -275 200 0 200 0 0
275 c0 295 4 320 53 374 72 79 222 79 294 0 49 -54 53 -79 53 -374 l0 -275
105 0 c148 0 206 -27 246 -115 17 -36 19 -70 19 -356 0 -340 -8 -420 -53 -554
-50 -147 -123 -263 -236 -376 -122 -121 -262 -205 -417 -247 l-69 -19 -5 -494
c-5 -476 -6 -496 -27 -552 -74 -195 -203 -326 -383 -387 -92 -32 -231 -38
-335 -15 -696 152 -1305 595 -1665 1212 -194 331 -303 682 -343 1103 -2 19 -5
-502 -5 -1157 l-2 -1193 2560 0 2560 0 -2 1198 c-1 658 -3 1179 -5 1157 -29
-345 -114 -654 -264 -954 -208 -419 -510 -758 -899 -1013 -119 -78 -387 -214
-441 -223 -143 -26 -270 137 -214 273 25 58 53 81 163 133 1124 528 1584 1863
1021 2959 -329 641 -971 1081 -1691 1159 -90 10 -342 12 -433 4z"/>
<path d="M1990 2568 c0 -292 32 -392 170 -530 233 -234 577 -234 811 1 136
136 169 239 169 529 l0 182 -575 0 -575 0 0 -182z"/>
</g>
</svg>
