<?xml version="1.0" standalone="no"?>
<!DOCTYPE svg PUBLIC "-//W3C//DTD SVG 20010904//EN"
 "http://www.w3.org/TR/2001/REC-SVG-20010904/DTD/svg10.dtd">
<svg version="1.0" xmlns="http://www.w3.org/2000/svg"
 viewBox="0 0 504.000000 423.000000"
 preserveAspectRatio="xMidYMid meet">

<g transform="translate(0.000000,423.000000) scale(0.100000,-0.100000)"
 stroke="none">
<path d="M1891 4200 c-40 -9 -116 -39 -168 -65 -162 -80 -256 -195 -303 -370
-88 -325 -195 -586 -351 -847 -122 -207 -252 -376 -441 -577 -116 -122 -169
-216 -188 -332 -40 -235 61 -506 250 -675 66 -59 74 -64 450 -276 463 -261
495 -273 720 -273 132 1 152 3 225 28 175 61 299 163 364 301 22 45 44 104 50
131 21 91 69 230 78 228 5 -1 331 -203 724 -449 393 -245 734 -456 759 -469
82 -42 181 -66 285 -72 130 -7 222 13 342 72 155 76 260 198 319 370 24 69 28
95 27 195 0 96 -4 128 -25 192 -40 120 -92 204 -182 293 -95 94 -85 88 -871
485 -286 144 -584 296 -663 337 l-142 75 29 36 c17 20 72 83 124 139 139 152
177 241 177 419 0 226 -99 441 -269 583 -59 49 -566 343 -771 448 -58 30 -141
63 -184 73 -102 26 -261 26 -365 0z m282 -395 c36 -9 178 -83 399 -207 380
-214 425 -248 478 -359 65 -139 54 -193 -68 -322 -404 -426 -677 -903 -842
-1471 -52 -180 -64 -202 -135 -239 -54 -29 -212 -29 -295 0 -61 21 -688 371
-735 411 -46 38 -113 132 -130 181 -21 61 -19 149 3 183 9 14 62 75 117 135
392 422 656 895 820 1468 39 136 59 170 120 203 66 34 175 41 268 17z m1306
-1922 c980 -496 1004 -509 1054 -553 128 -113 137 -292 20 -389 -42 -35 -117
-61 -173 -61 -87 0 -139 29 -894 501 -413 258 -753 474 -754 480 -6 16 160
309 174 309 4 0 261 -129 573 -287z"/>
<path d="M2081 3059 c-29 -15 -54 -39 -76 -73 -75 -120 -448 -790 -457 -823
-33 -119 65 -243 192 -243 52 0 115 27 147 61 17 20 411 708 468 818 13 25 16
51 13 97 -4 70 -20 98 -82 148 -51 41 -140 48 -205 15z"/>
</g>
</svg>
