<svg class="mx-lg-4" xmlns="http://www.w3.org/2000/svg" xmlns:xlink="http://www.w3.org/1999/xlink" viewBox="0 0 1182.52 272.09"><defs><style>.cls-1{isolation:isolate;}.cls-2{fill:url(#Dégradé_sans_nom_85);}.cls-3{fill:#efeeeb;}.cls-4,.cls-5{opacity:0.3;}.cls-4,.cls-5,.cls-6{mix-blend-mode:multiply;}.cls-4{fill:url(#linear-gradient);}.cls-5{fill:url(#linear-gradient-2);}.cls-6{opacity:0.4;fill:url(#Dégradé_sans_nom_3);}.cls-7{fill:#170006;}.cls-8{fill:#f9124e;}</style><linearGradient id="Dégradé_sans_nom_85" x1="47.37" y1="289.01" x2="284.56" y2="289.01" gradientTransform="translate(-73.82 -135.65) rotate(-4.33)" gradientUnits="userSpaceOnUse"><stop offset="0" stop-color="#9f042c"/><stop offset="0.18" stop-color="#a5052e"/><stop offset="0.42" stop-color="#b60835"/><stop offset="0.7" stop-color="#d20c3f"/><stop offset="1" stop-color="#f8124e"/><stop offset="1" stop-color="#f9124e"/></linearGradient><linearGradient id="linear-gradient" x1="173.99" y1="562.2" x2="152.29" y2="566.02" gradientTransform="translate(-17.85 -415.39) rotate(-4.33)" gradientUnits="userSpaceOnUse"><stop offset="0" stop-color="#170006" stop-opacity="0.96"/><stop offset="0.2" stop-color="#968c8e" stop-opacity="0.43"/><stop offset="0.47" stop-color="#e7e5e5" stop-opacity="0.1"/><stop offset="1" stop-color="#fff" stop-opacity="0"/></linearGradient><linearGradient id="linear-gradient-2" x1="-3122.13" y1="-401.4" x2="-3143.83" y2="-397.57" gradientTransform="matrix(-0.89, -0.46, -0.46, 0.89, -2870.95, -974.35)" xlink:href="#linear-gradient"/><linearGradient id="Dégradé_sans_nom_3" x1="405.67" y1="-213.21" x2="291.18" y2="-226.79" gradientTransform="translate(-59.48 447.72) scale(0.68 0.95)" gradientUnits="userSpaceOnUse"><stop offset="0" stop-color="#170006" stop-opacity="0.96"/><stop offset="0.48" stop-color="#331f24" stop-opacity="0.84"/><stop offset="0.8" stop-color="#8e8386" stop-opacity="0.47"/><stop offset="1" stop-color="#fff" stop-opacity="0"/></linearGradient></defs><g class="cls-1"><g id="Layer_2" data-name="Layer 2"><g id="Calque_1" data-name="Calque 1"><path class="cls-2" d="M152.23,5.73,2.47,204.67a12.25,12.25,0,0,0-2.26,5c-1.7,8.66,7.06,17.47,17.18,14.54l79.35-23a62,62,0,0,1,55.42,10.71l67.4,52.72c8.26,6.47,19.62,1.64,21.32-7a12.21,12.21,0,0,0-.2-5.45L177.61,10.74A14.37,14.37,0,0,0,152.23,5.73Z"/><path class="cls-3" d="M84.15,109.64l35.94,11.75,3.35-10,36.61,12.1-11.63,37-37.36-12.14,2.88-9.45L72,125.47C75.65,120.74,84.15,109.64,84.15,109.64Z"/><path class="cls-3" d="M109.22,151a5.75,5.75,0,0,0-6.51,3.57s-1.3,5.42,4,7.25S145.59,174,145.59,174s4.81.86,6-3.29c0,0,2.69-5.33-2.75-7.12Z"/><path class="cls-3" d="M125.73,97.86a5.77,5.77,0,0,0-6.52,3.57s-1.3,5.43,4,7.26,38.87,12.2,38.87,12.2,4.8.86,6-3.29c0,0,2.69-5.33-2.75-7.12Z"/><path class="cls-4" d="M160.39,41.11C170,63,172.77,86.91,175.76,110.37c3,23.71,5.79,47.44,11.92,70,6.3,23.14,15,45.44,24.24,67.51a15,15,0,0,0,4-1.79,15.18,15.18,0,0,0,1.7-1.25c.27-.23.54-.47.79-.71a15.33,15.33,0,0,0,1.43-1.58c.22-.27.43-.56.63-.85a15,15,0,0,0,1.09-1.85,15.52,15.52,0,0,0,1.57-5.26c0-.38.07-.76.08-1.14a15.52,15.52,0,0,0-.08-2.35,17.45,17.45,0,0,0-.43-2.41L173.2,35.21c-.11-.43-.23-.85-.37-1.25,0-.14-.1-.26-.14-.39s-.2-.54-.31-.8-.13-.29-.2-.44-.21-.45-.32-.67-.17-.3-.25-.45-.22-.4-.34-.6l-.29-.44-.37-.54c-.11-.14-.21-.28-.32-.41s-.26-.34-.4-.5l-.35-.39-.42-.44-.38-.37-.45-.4-.4-.34-.47-.36-.43-.31c-.15-.11-.31-.21-.47-.31l-.46-.28c-.16-.1-.32-.18-.49-.27l-.48-.26-.48-.22-.52-.22-.47-.18-.56-.2-.44-.13-.61-.17-.35-.08c-.24-.05-.47-.11-.71-.15h-.08a15.51,15.51,0,0,0-4-.15h-.15l-.85.11-.21,0-.81.17-.24.05-.79.22-.24.08c-.26.08-.52.17-.77.27l-.25.1c-.16.06-.32.14-.48.21A173.34,173.34,0,0,1,160.39,41.11Z"/><path class="cls-5" d="M155,40.1c-17.44,16.3-29.37,37.26-41.33,57.65-12.1,20.62-24,41.36-38.45,59.67C60.3,176.23,43.56,193.32,26.38,210a15.13,15.13,0,0,1-3-3.23,17.36,17.36,0,0,1-1.07-1.82q-.24-.47-.45-1a17,17,0,0,1-.69-2c-.09-.34-.18-.69-.25-1a15.12,15.12,0,0,1-.27-2.13,15.47,15.47,0,0,1,.62-5.45c.11-.36.24-.72.37-1.08A17,17,0,0,1,24,188.09L145.51,29.64c.27-.35.54-.68.83-1,.09-.11.19-.21.29-.31s.39-.41.59-.61l.36-.32.56-.5.4-.31c.19-.14.37-.29.56-.42l.43-.29.56-.35.45-.25c.19-.11.37-.21.56-.3l.48-.22.56-.25.49-.19.57-.19.51-.15c.18-.06.37-.1.56-.15l.52-.12.56-.1.54-.08.55-.05.54-.05h1.1l.5,0,.59,0,.45.06c.21,0,.42,0,.63.08l.36.07c.24,0,.47.08.71.14l.08,0a15.43,15.43,0,0,1,3.71,1.41l.13.07.74.44.18.11.68.47.2.15c.22.16.43.33.64.51l.2.17c.2.17.4.36.59.55l.19.18.36.39A173.06,173.06,0,0,0,155,40.1Z"/><ellipse class="cls-6" cx="120.55" cy="228.32" rx="43.37" ry="55.23" transform="translate(-125.01 308.09) rotate(-80.16)"/><path class="cls-7" d="M419.91,122.07a53.94,53.94,0,0,0-14.45-8.52,123,123,0,0,0-16.66-5.31q-8.64-2.1-16.67-3.83A80.52,80.52,0,0,1,357.69,100a28,28,0,0,1-10.25-7q-3.82-4.31-3.82-11.48a19.09,19.09,0,0,1,3-10.86A19.41,19.41,0,0,1,355,63.68a30.74,30.74,0,0,1,12.84-2.47,33.33,33.33,0,0,1,14.57,3.08,24.28,24.28,0,0,1,10,8.52,23.1,23.1,0,0,1,3.52,11.57,2.14,2.14,0,0,0,2.14,2h31a2.14,2.14,0,0,0,2.15-2.19q-.5-15.63-8.11-26.82-8.14-12-23-18.39T365.1,32.57q-18.77,0-32.72,6.29a49.58,49.58,0,0,0-21.6,17.9q-7.66,11.61-7.66,27.9,0,12.6,3.83,21a39.58,39.58,0,0,0,10.12,13.82,52.46,52.46,0,0,0,14.32,8.77,125.34,125.34,0,0,0,16.67,5.56Q356.7,136,364.73,138a84.19,84.19,0,0,1,14.32,4.82A29.45,29.45,0,0,1,389.17,150q3.82,4.32,3.83,11.48A17.65,17.65,0,0,1,381.15,179a35.8,35.8,0,0,1-13.09,2.22,38,38,0,0,1-16.42-3.33,24.8,24.8,0,0,1-10.86-9.63A26.88,26.88,0,0,1,337,155.55a2.15,2.15,0,0,0-2.15-2H301.61a2.15,2.15,0,0,0-2.16,2.19q.46,15.91,7.75,27.93,7.77,12.84,23.08,19.87t37.78,7q20.24,0,35.06-6.17T426,186.26q8-12,8-29.5,0-12.6-3.83-21A37.78,37.78,0,0,0,419.91,122.07Z"/><path class="cls-7" d="M560.59,89.29Q545.28,81,524.54,81t-35.92,8.27a59.22,59.22,0,0,0-23.58,23q-8.4,14.7-8.4,34.2,0,19.26,8.4,34.07a58.92,58.92,0,0,0,23.58,23.08q15.18,8.28,35.92,8.27t36.05-8.27a58,58,0,0,0,23.58-23.08q8.26-14.82,8.27-34.07,0-19.5-8.27-34.2A58.27,58.27,0,0,0,560.59,89.29ZM549.36,165a25.82,25.82,0,0,1-9.63,11.73,30.3,30.3,0,0,1-30.37,0A25.7,25.7,0,0,1,499.73,165q-3.33-7.65-3.33-18.51t3.33-18.52a25.48,25.48,0,0,1,24.81-16.05,28.32,28.32,0,0,1,11.85,2.35,24.55,24.55,0,0,1,8.89,6.79,29.53,29.53,0,0,1,5.56,10.86,52.75,52.75,0,0,1,1.85,14.57Q552.69,157.31,549.36,165Z"/><path class="cls-7" d="M718.65,88q-15.31-8.26-36-8.27T646.68,88a59.24,59.24,0,0,0-23.58,23q-8.4,14.69-8.39,34.19,0,19.26,8.39,34.07a58.88,58.88,0,0,0,23.58,23.09q15.18,8.26,35.92,8.27t36-8.27a58,58,0,0,0,23.58-23.09q8.26-14.81,8.27-34.07,0-19.5-8.27-34.19A58.3,58.3,0,0,0,718.65,88Zm-11.23,75.68a25.86,25.86,0,0,1-9.63,11.73,30.36,30.36,0,0,1-30.37,0,25.8,25.8,0,0,1-9.63-11.73q-3.33-7.65-3.33-18.52t3.33-18.51a25.45,25.45,0,0,1,24.81-16,28.48,28.48,0,0,1,11.85,2.34,24.78,24.78,0,0,1,8.89,6.79,29.57,29.57,0,0,1,5.56,10.87,52.72,52.72,0,0,1,1.85,14.56Q710.75,156,707.42,163.67Z"/><path class="cls-7" d="M958.44,95.05a35.81,35.81,0,0,0-13.83-9.14,50,50,0,0,0-17.41-3,48.81,48.81,0,0,0-22.34,5.31,46.52,46.52,0,0,0-17.65,15.92c-.41.61-.79,1.24-1.17,1.87a39.13,39.13,0,0,0-7.47-11.5,35,35,0,0,0-13.46-8.76A49.82,49.82,0,0,0,848,83a39.93,39.93,0,0,0-23.21,7.16,44.11,44.11,0,0,0-11.84,12.32,2.15,2.15,0,0,1-4-1.16V87.57a2.15,2.15,0,0,0-2.15-2.15H775.54a2.15,2.15,0,0,0-2.15,2.15V208.44a2.16,2.16,0,0,0,2.15,2.16h34.7a2.16,2.16,0,0,0,2.16-2.16V150.35q0-13.32,3.08-20.86t8-10.74a19.11,19.11,0,0,1,10.61-3.21,22.5,22.5,0,0,1,7.66,1.24A13.53,13.53,0,0,1,847.7,121a20.87,20.87,0,0,1,3.83,8,51.43,51.43,0,0,1,1.36,13v66.48A2.16,2.16,0,0,0,855,210.6h33.72a2.16,2.16,0,0,0,2.15-2.16V150.35q0-13.32,3.09-20.86t8-10.74a18.73,18.73,0,0,1,10.37-3.21,23.23,23.23,0,0,1,7.9,1.24,14.39,14.39,0,0,1,6.05,4.19,19.74,19.74,0,0,1,3.95,8,51.43,51.43,0,0,1,1.36,13v66.48a2.16,2.16,0,0,0,2.15,2.16h34.71a2.16,2.16,0,0,0,2.15-2.16V132.58q0-12.84-3.21-22.1A42.66,42.66,0,0,0,958.44,95.05Z"/><path class="cls-7" d="M1079.78,86.87l-26.15,75.65a2.15,2.15,0,0,1-4.08-.06L1025.7,86.92a2.15,2.15,0,0,0-2.05-1.5h-37a2.15,2.15,0,0,0-2,2.93l46.66,120.18a2.18,2.18,0,0,1,0,1.57l-20.68,51.62a2.15,2.15,0,0,0,2,2.95H1046a2.16,2.16,0,0,0,2-1.36l69.88-174.94a2.16,2.16,0,0,0-2-3h-34A2.15,2.15,0,0,0,1079.78,86.87Z"/><path class="cls-7" d="M1097.14,199a7.93,7.93,0,0,0-6.94,0,5.64,5.64,0,0,0-2.27,2.22,7.09,7.09,0,0,0,0,6.58,5.73,5.73,0,0,0,2.27,2.23,8,8,0,0,0,6.94,0,5.6,5.6,0,0,0,2.27-2.23,7.17,7.17,0,0,0,0-6.58A5.52,5.52,0,0,0,1097.14,199Z"/><path class="cls-7" d="M1122.65,159.21h-9.14a1.1,1.1,0,0,0-1.1,1.1v11.53a1.11,1.11,0,0,1-1.11,1.11H1107a1.11,1.11,0,0,0-1.11,1.1v6.23a1.11,1.11,0,0,0,1.11,1.1h4.28a1.11,1.11,0,0,1,1.11,1.11v14.72a28.75,28.75,0,0,0,.71,6.95,9.59,9.59,0,0,0,2.31,4.48,9.43,9.43,0,0,0,4.22,2.39,24,24,0,0,0,6.42.74c1,0,2.14-.05,3.29-.15a31.5,31.5,0,0,0,3.13-.41,11,11,0,0,0,1.42-.34,1.09,1.09,0,0,0,.75-1.05v-6.75a1.09,1.09,0,0,0-1.49-1,7.18,7.18,0,0,1-1.09.33,13.12,13.12,0,0,1-2.8.3,9.15,9.15,0,0,1-3.25-.49,3,3,0,0,1-1.75-1.79,10.32,10.32,0,0,1-.52-3.7v-14.2a1.11,1.11,0,0,1,1.1-1.11h8.77a1.1,1.1,0,0,0,1.1-1.1v-6.23a1.1,1.1,0,0,0-1.1-1.1h-8.77a1.11,1.11,0,0,1-1.1-1.11V160.31A1.11,1.11,0,0,0,1122.65,159.21Z"/><path class="cls-7" d="M1181.51,180.53a12.82,12.82,0,0,0-2.8-4.67,10.91,10.91,0,0,0-4.33-2.76,16.65,16.65,0,0,0-5.6-.9,13.6,13.6,0,0,0-7.69,2.17,13.06,13.06,0,0,0-3,2.8,1.1,1.1,0,0,1-2-.7v-1.75a1.78,1.78,0,0,0-1.78-1.77h-7.87a1.11,1.11,0,0,0-1.11,1.1V209.7a1.11,1.11,0,0,0,1.11,1.1H1156a1.1,1.1,0,0,0,1.1-1.1V192.58a16.88,16.88,0,0,1,.94-6.3,6.45,6.45,0,0,1,2.54-3.25,6.66,6.66,0,0,1,3.54-1,9.18,9.18,0,0,1,2.76.37,4.8,4.8,0,0,1,2.06,1.27,5.75,5.75,0,0,1,1.3,2.43,14.17,14.17,0,0,1,.45,3.92V209.7a1.11,1.11,0,0,0,1.11,1.1h9.59a1.1,1.1,0,0,0,1.1-1.1V187.21A19.77,19.77,0,0,0,1181.51,180.53Z"/><path class="cls-8" d="M376.62,245.33l-.85,1.53a10.49,10.49,0,0,0-4.86-1.31c-1.65,0-2.87.69-2.87,2.08a1.34,1.34,0,0,0,.63,1.16,10.39,10.39,0,0,0,2.64.93,21.8,21.8,0,0,1,3.81,1.24,3.13,3.13,0,0,1,1.85,2.5,4.87,4.87,0,0,1,0,.55,3.41,3.41,0,0,1-1.51,3,6.82,6.82,0,0,1-3.92,1,11.54,11.54,0,0,1-6.26-1.76l.91-1.49a11.12,11.12,0,0,0,5.55,1.53c1.81,0,3.15-.7,3.15-2.06a1.6,1.6,0,0,0-.83-1.6,3.4,3.4,0,0,0-1.1-.45,13.15,13.15,0,0,0-1.58-.43l-.65-.18a12.1,12.1,0,0,1-3.64-1.36,2.58,2.58,0,0,1-1.22-2.36c0-2.78,2.36-4,5.24-4A10.64,10.64,0,0,1,376.62,245.33Z"/><path class="cls-8" d="M393,257.83h-2V244.05h2Z"/><path class="cls-8" d="M417.87,245.76h-4.59v12.07h-2V245.76h-4.59v-1.71h11.18Z"/><path class="cls-8" d="M442,245.84h-8.48V250h7.83v1.7h-7.83V256h8.66v1.79H431.5V244.05H442Z"/><path class="cls-8" d="M471.45,244.05h5.43a6.9,6.9,0,1,1,0,13.78h-5.43Zm2,1.79V256h3.37a5.34,5.34,0,0,0,3.77-1.46,4.78,4.78,0,0,0,1.56-3.64,4.7,4.7,0,0,0-1.56-3.62,5.27,5.27,0,0,0-3.77-1.48Z"/><path class="cls-8" d="M499.25,243.91l-1.85,2.82-.59-.28,1.07-2.2a.88.88,0,0,1-.6-.83c-.09-1.22,2.23-1.22,2.13,0A.89.89,0,0,1,499.25,243.91Z"/><path class="cls-8" d="M523.41,245.84h-8.48V250h7.83v1.7h-7.83V256h8.66v1.79H512.94V244.05h10.47Z"/><path class="cls-8" d="M549.62,257.83h-2.13l-8.17-10.61v10.61h-2V244.05h2.13l8.17,10.61V244.05h2Z"/><path class="cls-8" d="M576.79,246.57l-1.69,1a4.91,4.91,0,0,0-4-1.85,5.19,5.19,0,0,0-5.18,5.22,5.16,5.16,0,0,0,5.18,5.22,4.91,4.91,0,0,0,4-1.85l1.69,1a7.25,7.25,0,0,1-5.67,2.72,7.09,7.09,0,1,1,0-14.18A7.25,7.25,0,0,1,576.79,246.57Z"/><path class="cls-8" d="M603,257.83h-2v-6h-8.27v6h-2V244.05h2V250H601v-5.94h2Z"/><path class="cls-8" d="M628.44,245.84H620V250h7.84v1.7H620V256h8.66v1.79H618V244.05h10.48Zm-4.1-3h-1.63l-2.58-3.13h2Z"/><path class="cls-8" d="M642.56,244.05h5.94c4.1,0,5.77,1.32,5.77,4.41,0,2.3-.94,3.6-3.15,4.09l3.62,5.28h-2.28l-3.41-5c-.29,0-.63,0-1,0h-3.5v5h-2Zm2,1.79v5.45h4.05c2.64,0,3.6-.8,3.6-2.71s-1-2.74-3.6-2.74Z"/><path class="cls-8" d="M678.86,245.84h-8.48V250h7.83v1.7h-7.83V256H679v1.79H668.39V244.05h10.47Z"/><path class="cls-8" d="M703.26,245.33l-.85,1.53a10.49,10.49,0,0,0-4.86-1.31c-1.65,0-2.87.69-2.87,2.08a1.34,1.34,0,0,0,.63,1.16,10.39,10.39,0,0,0,2.64.93,21.8,21.8,0,0,1,3.81,1.24,3.13,3.13,0,0,1,1.85,2.5,4.87,4.87,0,0,1,0,.55,3.41,3.41,0,0,1-1.51,3,6.82,6.82,0,0,1-3.92,1,11.54,11.54,0,0,1-6.26-1.76l.91-1.49a11.12,11.12,0,0,0,5.55,1.53c1.81,0,3.15-.7,3.15-2.06a1.6,1.6,0,0,0-.83-1.6,3.4,3.4,0,0,0-1.1-.45,13.15,13.15,0,0,0-1.58-.43l-.65-.18a12.1,12.1,0,0,1-3.64-1.36,2.58,2.58,0,0,1-1.22-2.36c0-2.78,2.36-4,5.24-4A10.64,10.64,0,0,1,703.26,245.33Z"/><path class="cls-8" d="M743.53,245.84H735V250h7.84v1.7H735V256h8.66v1.79H733.05V244.05h10.48Z"/><path class="cls-8" d="M769.73,257.83h-2.12l-8.17-10.61v10.61h-2V244.05h2.13l8.16,10.61V244.05h2Z"/><path class="cls-8" d="M801.93,256h7.56v1.79h-9.55V244.05h2Z"/><path class="cls-8" d="M825.12,257.83h-2V244.05h2Z"/><path class="cls-8" d="M852.06,245.76l-1.3,1.36a5.57,5.57,0,0,0-3.82-1.44,5.27,5.27,0,0,0-3.78,1.52,5,5,0,0,0-1.55,3.74,5.17,5.17,0,0,0,5.21,5.22,6.15,6.15,0,0,0,3.92-1.32V252h-3.8v-1.43h5.71v5.35a8.75,8.75,0,0,1-5.83,2.11,7.17,7.17,0,0,1-7.28-7.09,6.71,6.71,0,0,1,1-3.68,7.38,7.38,0,0,1,6.38-3.41A7.64,7.64,0,0,1,852.06,245.76Z"/><path class="cls-8" d="M879.55,257.83h-2.13l-8.17-10.61v10.61h-2V244.05h2.13l8.17,10.61V244.05h1.95Z"/><path class="cls-8" d="M904.87,245.84h-8.49V250h7.84v1.7h-7.84V256h8.67v1.79H894.4V244.05h10.47Z"/></g></g></g></svg>